<mxfile host="Electron" modified="2024-10-04T06:14:22.432Z" agent="Mozilla/5.0 (Windows NT 10.0; Win64; x64) AppleWebKit/537.36 (KHTML, like Gecko) draw.io/23.0.2 Chrome/120.0.6099.109 Electron/28.1.0 Safari/537.36" etag="nexsdDOooyyAMTY3-OCZ" version="23.0.2" type="device">
  <diagram name="Page-1" id="30m8atWH91_4Mveg4VvQ">
    <mxGraphModel dx="1263" dy="905" grid="0" gridSize="10" guides="1" tooltips="1" connect="1" arrows="1" fold="1" page="0" pageScale="1" pageWidth="827" pageHeight="1169" math="0" shadow="0">
      <root>
        <mxCell id="0" />
        <mxCell id="1" parent="0" />
        <mxCell id="3I1RnHOWaA08ieMt_Exx-8" value="" style="whiteSpace=wrap;html=1;aspect=fixed;fillColor=default;" parent="1" vertex="1">
          <mxGeometry x="-233" y="-39" width="740.94" height="740.94" as="geometry" />
        </mxCell>
        <mxCell id="rjjs56UgYy-5gCTx71Wk-3" value="" style="ellipse;html=1;shape=startState;fillColor=#000000;strokeColor=#ff0000;" parent="1" vertex="1">
          <mxGeometry x="752" y="70" width="30" height="30" as="geometry" />
        </mxCell>
        <mxCell id="rjjs56UgYy-5gCTx71Wk-4" value="" style="edgeStyle=orthogonalEdgeStyle;html=1;verticalAlign=bottom;endArrow=open;endSize=8;strokeColor=#ff0000;rounded=0;entryX=0.5;entryY=0;entryDx=0;entryDy=0;" parent="1" source="rjjs56UgYy-5gCTx71Wk-3" target="rjjs56UgYy-5gCTx71Wk-7" edge="1">
          <mxGeometry relative="1" as="geometry">
            <mxPoint x="766.5" y="124" as="targetPoint" />
          </mxGeometry>
        </mxCell>
        <mxCell id="rjjs56UgYy-5gCTx71Wk-7" value="Display Profile Icon on Dashboard" style="rounded=1;whiteSpace=wrap;html=1;arcSize=40;fontColor=#000000;fillColor=#ffffc0;strokeColor=#ff0000;" parent="1" vertex="1">
          <mxGeometry x="707" y="129" width="120" height="40" as="geometry" />
        </mxCell>
        <mxCell id="rjjs56UgYy-5gCTx71Wk-14" value="Choice" style="rhombus;whiteSpace=wrap;html=1;fontColor=#000000;fillColor=#ffffc0;strokeColor=#ff0000;" parent="1" vertex="1">
          <mxGeometry x="727" y="249.5" width="80" height="40" as="geometry" />
        </mxCell>
        <mxCell id="rjjs56UgYy-5gCTx71Wk-15" value="" style="edgeStyle=orthogonalEdgeStyle;html=1;verticalAlign=bottom;endArrow=open;endSize=8;strokeColor=#ff0000;rounded=0;exitX=0;exitY=0.5;exitDx=0;exitDy=0;entryX=0.5;entryY=0;entryDx=0;entryDy=0;" parent="1" source="rjjs56UgYy-5gCTx71Wk-14" target="rjjs56UgYy-5gCTx71Wk-31" edge="1">
          <mxGeometry relative="1" as="geometry">
            <mxPoint x="687" y="287" as="targetPoint" />
            <mxPoint x="556.5" y="160" as="sourcePoint" />
          </mxGeometry>
        </mxCell>
        <mxCell id="rjjs56UgYy-5gCTx71Wk-19" value="Change Password" style="rounded=1;whiteSpace=wrap;html=1;arcSize=40;fontColor=#000000;fillColor=#ffffc0;strokeColor=#ff0000;" parent="1" vertex="1">
          <mxGeometry x="846" y="295" width="102" height="31.5" as="geometry" />
        </mxCell>
        <mxCell id="rjjs56UgYy-5gCTx71Wk-18" value="" style="edgeStyle=orthogonalEdgeStyle;html=1;verticalAlign=bottom;endArrow=open;endSize=8;strokeColor=#ff0000;rounded=0;exitX=1;exitY=0.5;exitDx=0;exitDy=0;entryX=0.5;entryY=0;entryDx=0;entryDy=0;" parent="1" source="rjjs56UgYy-5gCTx71Wk-14" target="rjjs56UgYy-5gCTx71Wk-19" edge="1">
          <mxGeometry relative="1" as="geometry">
            <mxPoint x="858.5" y="230" as="targetPoint" />
            <mxPoint x="775.5" y="174" as="sourcePoint" />
          </mxGeometry>
        </mxCell>
        <mxCell id="rjjs56UgYy-5gCTx71Wk-26" value="" style="ellipse;html=1;shape=endState;fillColor=#000000;strokeColor=#ff0000;" parent="1" vertex="1">
          <mxGeometry x="710" y="583" width="30" height="30" as="geometry" />
        </mxCell>
        <mxCell id="rjjs56UgYy-5gCTx71Wk-31" value="Edits Profile" style="rounded=1;whiteSpace=wrap;html=1;arcSize=40;fontColor=#000000;fillColor=#ffffc0;strokeColor=#ff0000;" parent="1" vertex="1">
          <mxGeometry x="654" y="287" width="78" height="27" as="geometry" />
        </mxCell>
        <mxCell id="rjjs56UgYy-5gCTx71Wk-12" value="Viwe Profile" style="rounded=1;whiteSpace=wrap;html=1;arcSize=40;fontColor=#000000;fillColor=#ffffc0;strokeColor=#ff0000;" parent="1" vertex="1">
          <mxGeometry x="715.75" y="193" width="102.5" height="27" as="geometry" />
        </mxCell>
        <mxCell id="rjjs56UgYy-5gCTx71Wk-44" value="OTP Valid?" style="rhombus;whiteSpace=wrap;html=1;fontColor=#000000;fillColor=#ffffc0;strokeColor=#ff0000;" parent="1" vertex="1">
          <mxGeometry x="1014" y="530" width="82" height="42" as="geometry" />
        </mxCell>
        <mxCell id="rjjs56UgYy-5gCTx71Wk-45" value="no" style="html=1;align=left;verticalAlign=bottom;endArrow=open;endSize=8;strokeColor=#ff0000;rounded=0;exitX=1;exitY=0.5;exitDx=0;exitDy=0;entryX=0;entryY=0.5;entryDx=0;entryDy=0;edgeStyle=orthogonalEdgeStyle;" parent="1" source="rjjs56UgYy-5gCTx71Wk-44" target="uJnYk1_Tb4VZiwj2BzZM-3" edge="1">
          <mxGeometry x="-1" relative="1" as="geometry">
            <mxPoint x="1054" y="480" as="targetPoint" />
          </mxGeometry>
        </mxCell>
        <mxCell id="rjjs56UgYy-5gCTx71Wk-46" value="yes" style="edgeStyle=orthogonalEdgeStyle;html=1;align=left;verticalAlign=top;endArrow=open;endSize=8;strokeColor=#ff0000;rounded=0;entryX=0.5;entryY=0;entryDx=0;entryDy=0;" parent="1" source="rjjs56UgYy-5gCTx71Wk-44" target="rjjs56UgYy-5gCTx71Wk-51" edge="1">
          <mxGeometry x="-1" relative="1" as="geometry">
            <mxPoint x="1054.0285714285715" y="628.5" as="targetPoint" />
          </mxGeometry>
        </mxCell>
        <mxCell id="rjjs56UgYy-5gCTx71Wk-51" value="Relogin" style="rounded=1;whiteSpace=wrap;html=1;arcSize=40;fontColor=#000000;fillColor=#ffffc0;strokeColor=#ff0000;" parent="1" vertex="1">
          <mxGeometry x="1014" y="628" width="83" height="32" as="geometry" />
        </mxCell>
        <mxCell id="m6a0FWNfURd9xJMpYmFi-4" value="Upload Image" style="rounded=1;whiteSpace=wrap;html=1;arcSize=40;fontColor=#000000;fillColor=#ffffc0;strokeColor=#ff0000;" parent="1" vertex="1">
          <mxGeometry x="733" y="399.81" width="86" height="32.13" as="geometry" />
        </mxCell>
        <mxCell id="m6a0FWNfURd9xJMpYmFi-5" value="" style="edgeStyle=orthogonalEdgeStyle;html=1;verticalAlign=bottom;endArrow=open;endSize=8;strokeColor=#ff0000;rounded=0;exitX=0.5;exitY=1;exitDx=0;exitDy=0;entryX=0.75;entryY=0.5;entryDx=0;entryDy=0;entryPerimeter=0;" parent="1" source="m6a0FWNfURd9xJMpYmFi-4" target="uJnYk1_Tb4VZiwj2BzZM-14" edge="1">
          <mxGeometry relative="1" as="geometry">
            <mxPoint x="776" y="459" as="targetPoint" />
            <mxPoint x="725" y="511" as="sourcePoint" />
          </mxGeometry>
        </mxCell>
        <mxCell id="m6a0FWNfURd9xJMpYmFi-6" value="" style="edgeStyle=orthogonalEdgeStyle;html=1;verticalAlign=bottom;endArrow=open;endSize=8;strokeColor=#ff0000;rounded=0;exitX=0.5;exitY=1;exitDx=0;exitDy=0;entryX=0.25;entryY=0.5;entryDx=0;entryDy=0;entryPerimeter=0;" parent="1" source="uJnYk1_Tb4VZiwj2BzZM-6" target="uJnYk1_Tb4VZiwj2BzZM-14" edge="1">
          <mxGeometry relative="1" as="geometry">
            <mxPoint x="672" y="459" as="targetPoint" />
            <mxPoint x="637" y="513" as="sourcePoint" />
          </mxGeometry>
        </mxCell>
        <mxCell id="rjjs56UgYy-5gCTx71Wk-8" value="" style="edgeStyle=orthogonalEdgeStyle;html=1;verticalAlign=bottom;endArrow=open;endSize=8;strokeColor=#ff0000;rounded=0;entryX=0.5;entryY=0;entryDx=0;entryDy=0;" parent="1" source="rjjs56UgYy-5gCTx71Wk-7" target="rjjs56UgYy-5gCTx71Wk-12" edge="1">
          <mxGeometry relative="1" as="geometry">
            <mxPoint x="984.5" y="149" as="targetPoint" />
          </mxGeometry>
        </mxCell>
        <mxCell id="rjjs56UgYy-5gCTx71Wk-13" value="" style="edgeStyle=orthogonalEdgeStyle;html=1;verticalAlign=bottom;endArrow=open;endSize=8;strokeColor=#ff0000;rounded=0;exitX=0.5;exitY=1;exitDx=0;exitDy=0;" parent="1" source="rjjs56UgYy-5gCTx71Wk-12" target="rjjs56UgYy-5gCTx71Wk-14" edge="1">
          <mxGeometry relative="1" as="geometry">
            <mxPoint x="1062.5" y="206" as="targetPoint" />
            <mxPoint x="853.5" y="159" as="sourcePoint" />
          </mxGeometry>
        </mxCell>
        <mxCell id="rjjs56UgYy-5gCTx71Wk-34" value="" style="edgeStyle=orthogonalEdgeStyle;html=1;verticalAlign=bottom;endArrow=open;endSize=8;strokeColor=#ff0000;rounded=0;entryX=0;entryY=0.5;entryDx=0;entryDy=0;exitX=0.5;exitY=1;exitDx=0;exitDy=0;" parent="1" source="uJnYk1_Tb4VZiwj2BzZM-1" target="rjjs56UgYy-5gCTx71Wk-44" edge="1">
          <mxGeometry relative="1" as="geometry">
            <mxPoint x="985.5" y="258.51428571428573" as="targetPoint" />
            <mxPoint x="906" y="260" as="sourcePoint" />
          </mxGeometry>
        </mxCell>
        <mxCell id="rjjs56UgYy-5gCTx71Wk-32" value="" style="edgeStyle=orthogonalEdgeStyle;html=1;verticalAlign=bottom;endArrow=open;endSize=8;strokeColor=#ff0000;rounded=0;exitX=0.5;exitY=1;exitDx=0;exitDy=0;entryX=0.5;entryY=0;entryDx=0;entryDy=0;" parent="1" source="rjjs56UgYy-5gCTx71Wk-31" target="3I1RnHOWaA08ieMt_Exx-1" edge="1">
          <mxGeometry relative="1" as="geometry">
            <mxPoint x="835" y="345.9" as="targetPoint" />
            <mxPoint x="766.5" y="361" as="sourcePoint" />
          </mxGeometry>
        </mxCell>
        <mxCell id="3I1RnHOWaA08ieMt_Exx-1" value="Choice" style="rhombus;whiteSpace=wrap;html=1;fontColor=#000000;fillColor=#ffffc0;strokeColor=#ff0000;" parent="1" vertex="1">
          <mxGeometry x="653" y="356" width="80" height="40" as="geometry" />
        </mxCell>
        <mxCell id="3I1RnHOWaA08ieMt_Exx-2" value="" style="edgeStyle=orthogonalEdgeStyle;html=1;align=left;verticalAlign=top;endArrow=open;endSize=8;strokeColor=#ff0000;rounded=0;entryX=0.5;entryY=0;entryDx=0;entryDy=0;exitX=1;exitY=0.5;exitDx=0;exitDy=0;" parent="1" source="3I1RnHOWaA08ieMt_Exx-1" target="m6a0FWNfURd9xJMpYmFi-4" edge="1">
          <mxGeometry x="-1" relative="1" as="geometry">
            <mxPoint x="693.665" y="439.24" as="targetPoint" />
          </mxGeometry>
        </mxCell>
        <mxCell id="uJnYk1_Tb4VZiwj2BzZM-1" value="Enter Password" style="rounded=1;whiteSpace=wrap;html=1;arcSize=40;fontColor=#000000;fillColor=#ffffc0;strokeColor=#ff0000;" parent="1" vertex="1">
          <mxGeometry x="853" y="431.94" width="88" height="34" as="geometry" />
        </mxCell>
        <mxCell id="uJnYk1_Tb4VZiwj2BzZM-2" value="" style="edgeStyle=orthogonalEdgeStyle;html=1;verticalAlign=bottom;endArrow=open;endSize=8;strokeColor=#ff0000;rounded=0;exitX=0.5;exitY=1;exitDx=0;exitDy=0;" parent="1" source="rjjs56UgYy-5gCTx71Wk-19" edge="1">
          <mxGeometry relative="1" as="geometry">
            <mxPoint x="897" y="354.5" as="targetPoint" />
            <mxPoint x="901.5" y="331.5" as="sourcePoint" />
          </mxGeometry>
        </mxCell>
        <mxCell id="uJnYk1_Tb4VZiwj2BzZM-3" value="Invalid OTP" style="rounded=1;whiteSpace=wrap;html=1;arcSize=40;fontColor=#000000;fillColor=#ffffc0;strokeColor=#ff0000;" parent="1" vertex="1">
          <mxGeometry x="1167" y="535" width="83" height="32" as="geometry" />
        </mxCell>
        <mxCell id="uJnYk1_Tb4VZiwj2BzZM-5" value="" style="edgeStyle=orthogonalEdgeStyle;html=1;verticalAlign=bottom;endArrow=open;endSize=8;strokeColor=#ff0000;rounded=0;exitX=0.5;exitY=0;exitDx=0;exitDy=0;entryX=0.5;entryY=0;entryDx=0;entryDy=0;" parent="1" source="uJnYk1_Tb4VZiwj2BzZM-3" target="rjjs56UgYy-5gCTx71Wk-44" edge="1">
          <mxGeometry relative="1" as="geometry">
            <mxPoint x="1074" y="522" as="targetPoint" />
            <mxPoint x="1074" y="490" as="sourcePoint" />
            <Array as="points">
              <mxPoint x="1209" y="487" />
              <mxPoint x="1055" y="487" />
            </Array>
          </mxGeometry>
        </mxCell>
        <mxCell id="uJnYk1_Tb4VZiwj2BzZM-6" value="Enter Location" style="rounded=1;whiteSpace=wrap;html=1;arcSize=40;fontColor=#000000;fillColor=#ffffc0;strokeColor=#ff0000;" parent="1" vertex="1">
          <mxGeometry x="630" y="410" width="88" height="30.25" as="geometry" />
        </mxCell>
        <mxCell id="uJnYk1_Tb4VZiwj2BzZM-8" value="" style="edgeStyle=orthogonalEdgeStyle;html=1;verticalAlign=bottom;endArrow=open;endSize=8;strokeColor=#ff0000;rounded=0;exitX=0.5;exitY=1;exitDx=0;exitDy=0;entryX=0.5;entryY=0;entryDx=0;entryDy=0;" parent="1" source="rjjs56UgYy-5gCTx71Wk-51" target="uJnYk1_Tb4VZiwj2BzZM-9" edge="1">
          <mxGeometry relative="1" as="geometry">
            <mxPoint x="1056" y="742" as="targetPoint" />
            <mxPoint x="775" y="739" as="sourcePoint" />
          </mxGeometry>
        </mxCell>
        <mxCell id="uJnYk1_Tb4VZiwj2BzZM-9" value="" style="ellipse;html=1;shape=endState;fillColor=#000000;strokeColor=#ff0000;" parent="1" vertex="1">
          <mxGeometry x="1040" y="716" width="30" height="30" as="geometry" />
        </mxCell>
        <mxCell id="uJnYk1_Tb4VZiwj2BzZM-10" value="" style="html=1;verticalAlign=bottom;endArrow=open;endSize=8;strokeColor=#ff0000;rounded=0;exitX=0;exitY=1;exitDx=0;exitDy=0;entryX=0.5;entryY=0;entryDx=0;entryDy=0;" parent="1" source="3I1RnHOWaA08ieMt_Exx-1" target="uJnYk1_Tb4VZiwj2BzZM-6" edge="1">
          <mxGeometry relative="1" as="geometry">
            <mxPoint x="672" y="405" as="targetPoint" />
            <mxPoint x="682" y="447" as="sourcePoint" />
          </mxGeometry>
        </mxCell>
        <mxCell id="uJnYk1_Tb4VZiwj2BzZM-11" value="" style="edgeStyle=orthogonalEdgeStyle;html=1;align=left;verticalAlign=top;endArrow=open;endSize=8;strokeColor=#ff0000;rounded=0;entryX=0.5;entryY=0;entryDx=0;entryDy=0;exitX=0;exitY=0.5;exitDx=0;exitDy=0;" parent="1" source="3I1RnHOWaA08ieMt_Exx-1" target="uJnYk1_Tb4VZiwj2BzZM-13" edge="1">
          <mxGeometry x="-1" relative="1" as="geometry">
            <mxPoint x="600.0016279069771" y="399.81" as="targetPoint" />
            <mxPoint x="643.0016279069771" y="375.81" as="sourcePoint" />
          </mxGeometry>
        </mxCell>
        <mxCell id="uJnYk1_Tb4VZiwj2BzZM-12" value="" style="html=1;verticalAlign=bottom;endArrow=open;endSize=8;strokeColor=#ff0000;rounded=0;exitX=0;exitY=0.5;exitDx=0;exitDy=0;entryX=0;entryY=0.5;entryDx=0;entryDy=0;edgeStyle=orthogonalEdgeStyle;" parent="1" source="uJnYk1_Tb4VZiwj2BzZM-13" target="rjjs56UgYy-5gCTx71Wk-12" edge="1">
          <mxGeometry relative="1" as="geometry">
            <mxPoint x="584" y="463.6" as="targetPoint" />
            <mxPoint x="533" y="515.6" as="sourcePoint" />
          </mxGeometry>
        </mxCell>
        <mxCell id="uJnYk1_Tb4VZiwj2BzZM-13" value="Cancel" style="rounded=1;whiteSpace=wrap;html=1;arcSize=40;fontColor=#000000;fillColor=#ffffc0;strokeColor=#ff0000;" parent="1" vertex="1">
          <mxGeometry x="564" y="407" width="53" height="28.13" as="geometry" />
        </mxCell>
        <mxCell id="uJnYk1_Tb4VZiwj2BzZM-14" value="" style="shape=line;html=1;strokeWidth=6;strokeColor=#ff0000;" parent="1" vertex="1">
          <mxGeometry x="624" y="469" width="202" height="10" as="geometry" />
        </mxCell>
        <mxCell id="uJnYk1_Tb4VZiwj2BzZM-15" value="" style="edgeStyle=orthogonalEdgeStyle;html=1;verticalAlign=bottom;endArrow=open;endSize=8;strokeColor=#ff0000;rounded=0;entryX=0.5;entryY=0;entryDx=0;entryDy=0;" parent="1" source="uJnYk1_Tb4VZiwj2BzZM-14" target="uJnYk1_Tb4VZiwj2BzZM-17" edge="1">
          <mxGeometry relative="1" as="geometry">
            <mxPoint x="725" y="527" as="targetPoint" />
          </mxGeometry>
        </mxCell>
        <mxCell id="uJnYk1_Tb4VZiwj2BzZM-16" value="" style="edgeStyle=orthogonalEdgeStyle;html=1;verticalAlign=bottom;endArrow=open;endSize=8;strokeColor=#ff0000;rounded=0;exitX=0.5;exitY=1;exitDx=0;exitDy=0;entryX=0.5;entryY=0;entryDx=0;entryDy=0;" parent="1" source="uJnYk1_Tb4VZiwj2BzZM-17" target="rjjs56UgYy-5gCTx71Wk-26" edge="1">
          <mxGeometry relative="1" as="geometry">
            <mxPoint x="724" y="588" as="targetPoint" />
            <mxPoint x="686" y="627" as="sourcePoint" />
          </mxGeometry>
        </mxCell>
        <mxCell id="uJnYk1_Tb4VZiwj2BzZM-17" value="Save Changes" style="rounded=1;whiteSpace=wrap;html=1;arcSize=40;fontColor=#000000;fillColor=#ffffc0;strokeColor=#ff0000;" parent="1" vertex="1">
          <mxGeometry x="681" y="524" width="88" height="30.25" as="geometry" />
        </mxCell>
        <mxCell id="jR4cSUOqxf5NQYjvYC8Q-1" value="Choice" style="rhombus;whiteSpace=wrap;html=1;fontColor=#000000;fillColor=#ffffc0;strokeColor=#ff0000;" vertex="1" parent="1">
          <mxGeometry x="857" y="355.5" width="80" height="40" as="geometry" />
        </mxCell>
        <mxCell id="jR4cSUOqxf5NQYjvYC8Q-2" value="" style="html=1;align=left;verticalAlign=bottom;endArrow=open;endSize=8;strokeColor=#ff0000;rounded=0;entryX=0;entryY=0.5;entryDx=0;entryDy=0;edgeStyle=orthogonalEdgeStyle;exitX=1;exitY=0.5;exitDx=0;exitDy=0;" edge="1" source="jR4cSUOqxf5NQYjvYC8Q-1" parent="1" target="jR4cSUOqxf5NQYjvYC8Q-5">
          <mxGeometry x="-1" relative="1" as="geometry">
            <mxPoint x="988" y="376" as="targetPoint" />
            <mxPoint x="953" y="367" as="sourcePoint" />
          </mxGeometry>
        </mxCell>
        <mxCell id="jR4cSUOqxf5NQYjvYC8Q-3" value="" style="edgeStyle=orthogonalEdgeStyle;html=1;align=left;verticalAlign=top;endArrow=open;endSize=8;strokeColor=#ff0000;rounded=0;entryX=0.5;entryY=0;entryDx=0;entryDy=0;" edge="1" source="jR4cSUOqxf5NQYjvYC8Q-1" parent="1" target="uJnYk1_Tb4VZiwj2BzZM-1">
          <mxGeometry x="-1" relative="1" as="geometry">
            <mxPoint x="935" y="421.5" as="targetPoint" />
          </mxGeometry>
        </mxCell>
        <mxCell id="jR4cSUOqxf5NQYjvYC8Q-4" value="" style="html=1;verticalAlign=bottom;endArrow=open;endSize=8;strokeColor=#ff0000;rounded=0;exitX=0.5;exitY=0;exitDx=0;exitDy=0;entryX=1;entryY=0.5;entryDx=0;entryDy=0;edgeStyle=orthogonalEdgeStyle;" edge="1" source="jR4cSUOqxf5NQYjvYC8Q-5" parent="1" target="rjjs56UgYy-5gCTx71Wk-12">
          <mxGeometry relative="1" as="geometry">
            <mxPoint x="1048" y="415" as="targetPoint" />
            <mxPoint x="1052.5" y="392" as="sourcePoint" />
          </mxGeometry>
        </mxCell>
        <mxCell id="jR4cSUOqxf5NQYjvYC8Q-5" value="Cancel" style="rounded=1;whiteSpace=wrap;html=1;arcSize=40;fontColor=#000000;fillColor=#ffffc0;strokeColor=#ff0000;" vertex="1" parent="1">
          <mxGeometry x="1000" y="367.13" width="52" height="17.75" as="geometry" />
        </mxCell>
      </root>
    </mxGraphModel>
  </diagram>
</mxfile>
